<svg xmlns="http://www.w3.org/2000/svg" xmlns:xlink="http://www.w3.org/1999/xlink" width="66" zoomAndPan="magnify" viewBox="0 0 49.5 48.749998" height="65" preserveAspectRatio="xMidYMid meet" version="1.0"><defs><clipPath id="9d88dfeb74"><path d="M 0.496094 0.167969 L 48.261719 0.167969 L 48.261719 47.933594 L 0.496094 47.933594 Z M 0.496094 0.167969 " clip-rule="nonzero"/></clipPath><clipPath id="5a9d1a3b02"><path d="M 24.378906 47.933594 C 18.003906 47.933594 12 45.449219 7.496094 40.933594 C 2.980469 36.429688 0.496094 30.425781 0.496094 24.050781 C 0.496094 17.671875 2.980469 11.667969 7.496094 7.164062 C 12 2.648438 18.003906 0.167969 24.378906 0.167969 C 30.757812 0.167969 36.761719 2.648438 41.265625 7.164062 C 45.78125 11.679688 48.261719 17.671875 48.261719 24.050781 C 48.261719 30.425781 45.78125 36.429688 41.265625 40.933594 C 36.761719 45.449219 30.757812 47.933594 24.378906 47.933594 Z M 24.378906 1.597656 C 18.386719 1.597656 12.746094 3.9375 8.507812 8.175781 C 4.269531 12.414062 1.929688 18.054688 1.929688 24.050781 C 1.929688 30.042969 4.269531 35.683594 8.507812 39.921875 C 12.746094 44.160156 18.386719 46.5 24.378906 46.5 C 30.375 46.5 36.015625 44.160156 40.253906 39.921875 C 44.492188 35.683594 46.832031 30.042969 46.832031 24.050781 C 46.832031 18.054688 44.492188 12.414062 40.253906 8.175781 C 36.015625 3.9375 30.375 1.597656 24.378906 1.597656 Z M 24.378906 1.597656 " clip-rule="nonzero"/></clipPath></defs><g clip-path="url(#9d88dfeb74)"><g clip-path="url(#5a9d1a3b02)"><path fill="#5ec57e" d="M 0.496094 0.167969 L 48.261719 0.167969 L 48.261719 47.933594 L 0.496094 47.933594 Z M 0.496094 0.167969 " fill-opacity="1" fill-rule="nonzero"/></g></g><path stroke-linecap="butt" transform="matrix(0, 0.7425, -0.7425, 0, 25.11695, 8.277129)" fill="none" stroke-linejoin="miter" d="M 0.000289433 0.99926 L 41.498608 0.99926 " stroke="#5ec57e" stroke-width="2" stroke-opacity="1" stroke-miterlimit="4"/><path stroke-linecap="round" transform="matrix(0, 0.7425, -0.7425, 0, 25.11695, 8.277129)" fill="none" stroke-linejoin="round" d="M 37.500291 -1.999478 L 41.498608 0.99926 L 37.500291 3.997997 " stroke="#5ec57e" stroke-width="2" stroke-opacity="1" stroke-miterlimit="4"/></svg>